<svg width="500" height="500" viewBox="0 0 500 500" fill="none" xmlns="http://www.w3.org/2000/svg">
<path d="M366.32 175.28C365.23 268.99 364.15 362.7 363.06 456.41C266.64 445.92 170.22 435.43 73.79 424.93L154.11 312.59C240.22 321.27 326.33 329.96 412.44 338.64L363.05 456.41" stroke="white" stroke-width="2" stroke-linecap="round" stroke-linejoin="round"/>
<path d="M73.7904 424.93C71.2604 333.39 68.7204 241.85 66.1904 150.32C94.0504 120.11 121.91 89.9004 149.77 59.6904L420.04 79.7704C417.51 166.06 414.97 252.35 412.44 338.64" stroke="white" stroke-width="2" stroke-linecap="round" stroke-linejoin="round"/>
<path d="M154.12 312.59C152.67 228.29 151.23 143.99 149.78 59.6904" stroke="white" stroke-width="2" stroke-linecap="round" stroke-linejoin="round"/>
<path d="M66.2002 150.32C166.24 158.64 266.28 166.96 366.32 175.28C384.23 143.44 402.14 111.6 420.05 79.7598" stroke="white" stroke-width="2" stroke-linecap="round" stroke-linejoin="round"/>
<path d="M73.5 425L66.5 150.5L149.5 59L420.5 79.5L412.5 338.5L362.5 456.5L73.5 425Z" fill="white"/>
</svg>
