<svg width="500" height="500" viewBox="0 0 500 500" fill="none" xmlns="http://www.w3.org/2000/svg">
<path d="M410.82 163.88C408.47 256.32 406.12 348.76 403.76 441.21C304.99 442.3 206.21 443.38 107.44 444.47C104.36 350.76 101.29 257.05 98.21 163.34C101.29 132.41 104.36 101.47 107.44 70.5401C109.61 155.2 111.78 239.87 113.95 324.53L378.79 323.99C381.5 238.6 384.22 153.22 386.93 67.8301C293.76 68.7301 200.6 69.6401 107.43 70.5401" stroke="white" stroke-width="2" stroke-linecap="round" stroke-linejoin="round"/>
<path d="M98.2998 166.03C202.47 165.31 306.64 164.6 410.81 163.88" stroke="white" stroke-width="2" stroke-linecap="round" stroke-linejoin="round"/>
<path d="M386.94 67.8203C394.9 99.8403 402.86 131.86 410.82 163.88" stroke="white" stroke-width="2" stroke-linecap="round" stroke-linejoin="round"/>
<path d="M113.95 324.53C111.78 364.51 109.61 404.49 107.44 444.47" stroke="white" stroke-width="2" stroke-linecap="round" stroke-linejoin="round"/>
<path d="M378.8 323.98C387.12 363.06 395.44 402.13 403.76 441.21" stroke="white" stroke-width="2" stroke-linecap="round" stroke-linejoin="round"/>
<path d="M98 164L108 71L386.5 67.5L411 163.5L403.5 441L107.5 444L98 164Z" fill="white"/>
</svg>
