<svg width="500" height="500" viewBox="0 0 500 500" fill="none" xmlns="http://www.w3.org/2000/svg">
<path d="M199.46 467.68C281.71 444.77 363.96 421.85 446.21 398.94C449.06 309.37 451.92 219.8 454.77 130.24C369.26 148.57 283.75 166.9 198.25 185.23C198.65 279.38 199.05 373.53 199.46 467.68Z" stroke="white" stroke-width="2" stroke-linecap="round" stroke-linejoin="round"/>
<path d="M199.46 467.68C152.87 431.9 106.27 396.12 59.6797 360.34C57.0297 273.08 54.3697 185.83 51.7197 98.5703C100.56 127.45 149.41 156.34 198.25 185.22" stroke="white" stroke-width="2" stroke-linecap="round" stroke-linejoin="round"/>
<path d="M59.6797 360.12C137.55 341.06 215.42 322 293.29 302.94L446.21 398.94" stroke="white" stroke-width="2" stroke-linecap="round" stroke-linejoin="round"/>
<path d="M454.78 130.24C402 104.19 349.21 78.1398 296.43 52.0898C295.68 52.2298 294.93 52.3798 294.18 52.5198C213.36 67.9398 132.54 83.3498 51.7305 98.7698" stroke="white" stroke-width="2" stroke-linecap="round" stroke-linejoin="round"/>
<path d="M293.29 302.94C294.34 219.32 295.38 135.7 296.43 52.0898" stroke="white" stroke-width="2" stroke-linecap="round" stroke-linejoin="round"/>
</svg>
