<svg width="500" height="500" viewBox="0 0 500 500" fill="none" xmlns="http://www.w3.org/2000/svg">
<path d="M256.51 187.4C256.27 282.56 256.03 377.71 255.79 472.87C320.19 441.27 384.59 409.67 449 378.08C451.65 289.44 454.31 200.79 456.96 112.15C390.15 137.24 323.33 162.32 256.52 187.41L256.51 187.4Z" stroke="white" stroke-width="2" stroke-linecap="round" stroke-linejoin="round"/>
<path d="M456.95 112.15C386.64 91.6497 316.33 71.1396 246.02 50.6396V301.01L448.99 378.08" stroke="white" stroke-width="2" stroke-linecap="round" stroke-linejoin="round"/>
<path d="M255.78 472.87C188.12 442.6 120.46 412.33 52.8102 382.06C50.0402 293.3 47.2602 204.53 44.4902 115.77C111.67 94.0596 178.84 72.3496 246.02 50.6396" stroke="white" stroke-width="2" stroke-linecap="round" stroke-linejoin="round"/>
<path d="M44.4902 115.76C115.16 139.64 185.84 163.52 256.51 187.4" stroke="white" stroke-width="2" stroke-linecap="round" stroke-linejoin="round"/>
<path d="M246.02 301.01C181.62 328.03 117.22 355.04 52.8096 382.06" stroke="white" stroke-width="2" stroke-linecap="round" stroke-linejoin="round"/>
</svg>
