<svg width="500" height="500" viewBox="0 0 500 500" fill="none" xmlns="http://www.w3.org/2000/svg">
<path d="M47.2002 133.49C50.0902 223.22 52.9902 312.95 55.8802 402.68C141.27 424.03 226.65 445.37 312.04 466.72C353.83 430.18 395.62 393.63 437.41 357.09C357.45 339.36 277.49 321.63 197.53 303.9C150.31 336.82 103.1 369.75 55.8802 402.67" stroke="white" stroke-width="2" stroke-linecap="round" stroke-linejoin="round"/>
<path d="M437.41 357.09C439.4 269.71 441.39 182.34 443.38 94.9599C400.51 124.45 357.63 153.93 314.76 183.42C225.57 166.78 136.39 150.13 47.2002 133.49C96.7702 106.54 146.34 79.5799 195.9 52.6299C196.44 136.39 196.99 220.15 197.53 303.91" stroke="white" stroke-width="2" stroke-linecap="round" stroke-linejoin="round"/>
<path d="M314.76 183.42C313.86 277.85 312.95 372.28 312.05 466.72" stroke="white" stroke-width="2" stroke-linecap="round" stroke-linejoin="round"/>
<path d="M443.38 94.9599C360.89 80.8499 278.4 66.7399 195.9 52.6299" stroke="white" stroke-width="2" stroke-linecap="round" stroke-linejoin="round"/>
</svg>
