<svg width="500" height="500" viewBox="0 0 500 500" fill="none" xmlns="http://www.w3.org/2000/svg">
<path d="M339.72 309.33C340.62 225.93 341.53 142.54 342.43 59.1396C375.17 88.0796 407.92 117.03 440.66 145.97M440.66 145.97C437.4 237.51 434.15 329.05 430.89 420.58C337.54 433.24 244.2 445.91 150.85 458.57C128.42 419.13 105.99 379.7 83.5501 340.26C80.6601 254.87 77.7601 169.49 74.8701 84.0996C98.0301 115.22 121.18 146.33 144.34 177.45L440.66 145.97Z" stroke="white" stroke-width="2" stroke-linecap="round" stroke-linejoin="round"/>
<path d="M74.8799 84.1104C164.07 75.7904 253.25 67.4704 342.44 59.1504" stroke="white" stroke-width="2" stroke-linecap="round" stroke-linejoin="round"/>
<path d="M144.35 177.45C146.52 271.16 148.69 364.87 150.86 458.58" stroke="white" stroke-width="2" stroke-linecap="round" stroke-linejoin="round"/>
<path d="M83.5596 340.27C168.95 329.96 254.33 319.65 339.72 309.34C370.11 346.43 400.5 383.51 430.9 420.6" stroke="white" stroke-width="2" stroke-linecap="round" stroke-linejoin="round"/>
</svg>
