<svg width="69" height="60" viewBox="0 0 69 60" fill="none" xmlns="http://www.w3.org/2000/svg">
<path d="M46.0367 12.3584H1.45325V58.2468H46.0367V12.3584Z" fill="white" stroke="white" stroke-miterlimit="10"/>
<path d="M68.356 1H23.7725V46.8884H68.356V1Z" fill="white" stroke="white" stroke-miterlimit="10"/>
<path d="M46.0638 58.2754C53.4942 54.4796 60.9251 50.6844 68.3555 46.8887" stroke="white" stroke-miterlimit="10"/>
<path d="M46.0644 12.3867C53.4948 8.59094 60.9257 4.79575 68.3561 1" stroke="white" stroke-miterlimit="10"/>
<path d="M23.7172 1C16.268 4.7764 8.81932 8.55336 1.37012 12.3298" stroke="white" stroke-miterlimit="10"/>
<path d="M1.48059 58.2184C8.91099 54.442 16.3419 50.6651 23.7723 46.8887" stroke="white" stroke-miterlimit="10"/>
<path d="M1.70215 12.2735C9.11429 8.53469 16.5264 4.79644 23.9386 1.05762C25.5056 4.66321 27.0732 8.26938 28.6403 11.875C24.0492 13.374 19.4581 14.8737 14.867 16.3727C10.4789 15.0063 6.09025 13.6399 1.70215 12.2735Z" fill="white" stroke="white" stroke-miterlimit="10"/>
<path d="M68.3006 46.8878C60.8702 50.6642 53.4393 54.4412 46.0089 58.2175C45.8983 54.3079 45.7876 50.3989 45.677 46.4893" fill="white"/>
<path d="M68.3006 46.8878C60.8702 50.6642 53.4393 54.4412 46.0089 58.2175C45.8983 54.3079 45.7876 50.3989 45.677 46.4893" stroke="white" stroke-miterlimit="10"/>
</svg>
